HIERARCHY
ROOT Hips
{
	OFFSET -3.958830 18.904000 13.208200
	CHANNELS 6 Xposition Yposition Zposition Zrotation Yrotation Xrotation 
	JOINT LHipJoint
	{
		OFFSET 0.000000 0.000000 0.000000
		CHANNELS 3 Zrotation Yrotation Xrotation
		JOINT LeftUpLeg
		{
			OFFSET 1.800000 -1.400000 0.085000
			CHANNELS 3 Zrotation Yrotation Xrotation
			JOINT LeftLeg
			{
				OFFSET 2.215000 -6.000000 0.000000
				CHANNELS 3 Zrotation Yrotation Xrotation
				JOINT LeftFoot
				{
					OFFSET 2.500000 -6.900000 0.000000
					CHANNELS 3 Zrotation Yrotation Xrotation
					JOINT LeftToeBase
					{
						OFFSET 0.200000 -0.500000 1.950000
						CHANNELS 3 Zrotation Yrotation Xrotation
						End Site
						{
							OFFSET 0.000000 0.000000 0.000000
						}
					}
				}
			}
		}
	}
	JOINT RHipJoint
	{
		OFFSET 0.000000 0.000000 0.000000
		CHANNELS 3 Zrotation Yrotation Xrotation
		JOINT RightUpLeg
		{
			OFFSET -1.800000 -1.400000 0.085000
			CHANNELS 3 Zrotation Yrotation Xrotation
			JOINT RightLeg
			{
				OFFSET -2.215000 -6.000000 0.000000
				CHANNELS 3 Zrotation Yrotation Xrotation
				JOINT RightFoot
				{
					OFFSET -2.500000 -6.900000 0.000000
					CHANNELS 3 Zrotation Yrotation Xrotation
					JOINT RightToeBase
					{
						OFFSET -0.200000 -0.500000 1.950000
						CHANNELS 3 Zrotation Yrotation Xrotation
						End Site
						{
							OFFSET 0.000000 0.000000 0.000000
						}
					}
				}
			}
		}
	}
	JOINT LowerBack
	{
		OFFSET 0.000000 0.000000 0.000000
		CHANNELS 3 Zrotation Yrotation Xrotation
		JOINT Spine
		{
			OFFSET -0.087000 1.940000 -0.288900
			CHANNELS 3 Zrotation Yrotation Xrotation
			JOINT Spine1
			{
				OFFSET 0.000000 1.950000 0.060000
				CHANNELS 3 Zrotation Yrotation Xrotation
				JOINT Neck
				{
					OFFSET 0.000000 0.000000 0.000000
					CHANNELS 3 Zrotation Yrotation Xrotation
					JOINT Neck1
					{
						OFFSET 0.000000 1.600000 0.340000
						CHANNELS 3 Zrotation Yrotation Xrotation
						JOINT Head
						{
							OFFSET 0.000000 1.667000 -0.240000
							CHANNELS 3 Zrotation Yrotation Xrotation
							End Site
							{
								OFFSET 0.000000 0.000000 0.000000
							}
						}
					}
				}
				JOINT LeftShoulder
				{
					OFFSET 0.000000 0.000000 0.000000
					CHANNELS 3 Zrotation Yrotation Xrotation
					JOINT LeftArm
					{
						OFFSET 2.700000 1.550000 -0.730000
						CHANNELS 3 Zrotation Yrotation Xrotation
						JOINT LeftForeArm
						{
							OFFSET 5.450000 0.000000 0.000000
							CHANNELS 3 Zrotation Yrotation Xrotation
							JOINT LeftHand
							{
								OFFSET 3.450000 0.000000 0.000000
								CHANNELS 3 Zrotation Yrotation Xrotation
								JOINT LeftHandIndex1
								{
									OFFSET 0.750000 0.000000 0.000000
									CHANNELS 3 Zrotation Yrotation Xrotation
									End Site
									{
										OFFSET 0.000000 0.000000 0.000000
									}
								}
							}
						}
					}
				}
				JOINT RightShoulder
				{
					OFFSET 0.000000 0.000000 0.000000
					CHANNELS 3 Zrotation Yrotation Xrotation
					JOINT RightArm
					{
						OFFSET -2.700000 1.550000 -0.730000
						CHANNELS 3 Zrotation Yrotation Xrotation
						JOINT RightForeArm
						{
							OFFSET -5.450000 0.000000 0.000000
							CHANNELS 3 Zrotation Yrotation Xrotation
							JOINT RightHand
							{
								OFFSET -3.450000 0.000000 0.000000
								CHANNELS 3 Zrotation Yrotation Xrotation
								JOINT RightHandIndex1
								{
									OFFSET -0.750000 0.000000 0.000000
									CHANNELS 3 Zrotation Yrotation Xrotation
									End Site
									{
										OFFSET 0.000000 0.000000 0.000000
									}
								}
							}
						}
					}
				}
			}
		}
	}
}
MOTION
Frames: 4
Frame Time: 0.016667
0.236340 17.321620 -4.261590 4.952152 -1.020882 8.688692 -15.288888 12.381736 4.519191 -0.425844 -9.284918 -30.868586 -15.409290 9.944930 28.986583 -0.035517 6.003620 2.287830 0.243660 0.207900 0.234960 18.293378 -9.468972 3.377856 -17.973882 2.783524 -42.130561 -1.189786 -5.612181 31.085162 -0.217483 -3.882120 2.698527 0.185590 -0.015200 0.175220 -3.430760 -2.934201 -8.574419 17.742929 -5.089988 29.986619 -1.409911 -0.110155 0.650867 3.488134 -4.911397 -9.406984 -9.315471 1.190544 27.488354 -8.048150 2.206540 -19.366810 -31.718499 -13.782397 3.869326 -32.842383 -6.620056 -6.795341 -46.288640 -65.094217 24.314939 -3.641851 3.400617 0.366850 -0.007540 0.177870 0.003880 24.559241 18.756793 6.405510 21.954744 9.030609 -6.884247 -18.291251 22.666184 -3.145588 2.283822 -1.244774 -0.105290 0.186880 0.052580 -0.138660 
0.227340 17.300910 -4.267430 4.953377 -0.983857 8.938540 -15.303278 12.324722 4.588819 0.061351 -9.541050 -31.565951 -16.022333 10.286952 29.518692 -0.003837 6.199951 2.224273 0.232110 0.189900 0.236180 18.290765 -9.394330 3.402142 -18.121251 2.917085 -42.391085 -0.957004 -5.705378 31.275883 -0.217849 -3.917616 2.690395 0.178220 -0.008640 0.171630 -3.407862 -2.975755 -8.621826 17.816136 -5.136943 30.640987 -1.688157 0.057013 0.209415 3.622732 -4.945345 -9.461781 -9.368541 1.225071 27.483061 -8.425830 2.312630 -19.153610 -32.545258 -13.990688 3.789187 -32.064503 -6.285296 -7.033122 -45.590927 -64.533843 23.648492 -3.635633 3.396820 0.369230 -0.002310 0.172970 0.001610 25.109324 19.069702 6.615096 21.221438 8.821853 -6.662760 -17.092689 22.047356 -2.817861 2.294994 -1.231817 -0.116010 0.193730 0.056270 -0.143150 
0.212060 17.267580 -4.273940 4.489577 -1.064307 8.529257 -15.310163 12.369227 4.636062 1.387957 -9.467196 -31.714492 -17.048408 10.871548 30.069924 0.069452 6.480389 2.115116 0.232770 0.187080 0.242210 18.267017 -9.345438 3.415865 -18.318311 3.288174 -41.794780 0.396677 -6.065082 31.441744 -0.229161 -3.971223 2.673572 0.162950 -0.038440 0.164010 -3.364294 -3.109303 -8.674015 18.531252 -5.380055 32.291692 -2.359642 0.480564 -0.459545 3.993210 -5.056154 -9.989960 -9.826220 1.260660 28.676482 -8.510970 2.262630 -18.958940 -33.779265 -14.980492 3.848929 -30.391250 -5.728830 -7.517222 -43.978238 -62.670216 21.890090 -3.569972 3.419048 0.380920 -0.027370 0.187430 -0.003310 25.601717 20.428650 7.358380 19.665040 9.058916 -5.820794 -14.784112 18.536394 -2.038628 2.370749 -1.204664 -0.104790 0.176800 0.047070 -0.145740 
0.193010 17.258170 -4.274140 4.067749 -0.970427 7.819820 -15.314695 12.450392 4.660090 2.301322 -9.358233 -31.579787 -17.324658 11.190539 30.627339 0.132856 6.648474 2.049623 0.221860 0.171670 0.244710 18.234034 -9.334707 3.424862 -18.933387 3.486862 -40.700749 2.591710 -6.692348 31.284799 -0.241135 -4.078061 2.637681 0.135130 -0.059800 0.164030 -3.314085 -3.238897 -8.738068 18.886387 -5.540946 33.399497 -2.841586 0.766710 -0.767724 4.415851 -4.612624 -10.551227 -9.582796 1.256601 31.297217 -8.676820 2.382740 -17.754240 -34.948238 -16.218904 4.129412 -29.759710 -5.287227 -8.160545 -39.623073 -59.926503 18.192561 -3.504470 3.424413 0.383910 -0.041770 0.202610 -0.008490 25.905915 21.716876 7.913699 19.053642 9.665196 -5.149735 -12.517837 15.661441 -1.489760 2.443110 -1.165125 -0.088540 0.155660 0.040450 -0.143580 
